# xmcd
#
# Track frame offsets:
# 150
# 13688
# 29955
# 53653
# 71205
# 90189
# 107870
# 126523
# 147651
# 162503
# 180580
# 198342
# 218153
# 237633
#
# Disc length: 3325 seconds
#
# Revision: 0
# Processed by: cddbd v1.4PL0 Copyright (c) Steve Scherf et al.
# Submitted via: Axialis_AX_CDPlayer 2.6
#
DISCID=d80cfb0e
DTITLE=John Hiatt - John Hiatt Collection II
DYEAR=1900
DGENRE=
TTITLE0=What Do We Do Now
TTITLE1=Before I Go
TTITLE2=Buffalo River Home
TTITLE3=Come Home To You
TTITLE4=Cry Love
TTITLE5=Drive South
TTITLE6=Dust Down A Country Road
TTITLE7=I'll Never Get Over You
TTITLE8=Let It Ride
TTITLE9=Memphis In The Meantime
TTITLE10=My Old Friend
TTITLE11=Real Fine Loving
TTITLE12=Riding With The King
TTITLE13=Slow Turning
EXTD=
EXTT0=
EXTT1=
EXTT2=
EXTT3=
EXTT4=
EXTT5=
EXTT6=
EXTT7=
EXTT8=
EXTT9=
EXTT10=
EXTT11=
EXTT12=
EXTT13=
PLAYORDER=
